#!OML:ASF X:\für Bonn\!DataBase\2005_08_12_Daniel\c3d\Daniel.ASF
:FULLY-SPECIFIED
:DEGREES
211
root 17.4607 1.35128 0.342853 -1699.61 265.854 176.234
lowerback 60.897 -4.7169 8.00974
upperback 19.5272 -6.11861 -4.13179
thorax 0.0379875 -4.38298 -5.64738
lowerneck 9.8212 7.16846 -2.73203
upperneck 12.5762 9.24768 -6.95928
head 2.63747 4.0699 -1.86087
rclavicle 1.99033e-014 8.34896e-015
rhumerus -424.433 34.7145 254.751
rradius 49.5443
rwrist 21.5685
rhand -48.2188 767.023
rfingers 7.12502
rthumb -20.8787 738.127
lclavicle 1.99033e-014 8.34896e-015
lhumerus -556.039 167.744 -464.753
lradius 32.1744
lwrist -2.97838
lhand -34.5657 -720.195
lfingers 7.12502
lthumb -7.72557 29.6438
rfemur -590.466 -147.243 568.398
rtibia 88.7861
rfoot 8.79544 -18.2494
rtoes 28.7589
lfemur 44.4949 239.624 -33.0021
ltibia 246.908
lfoot -155.579 163.238
ltoes 33.9596
212
root 17.4913 1.34857 0.322527 -1706.47 265.775 182.077
lowerback 60.4785 -4.55995 7.73332
upperback 19.4507 -6.08297 -4.18541
thorax -0.0589811 -4.37249 -5.60084
lowerneck 9.44419 7.03388 -2.39461
upperneck 12.7678 9.12866 -6.63383
head 2.75861 4.0248 -1.79446
rclavicle 1.98163e-014 2.38542e-015
rhumerus -424.946 34.6457 254.302
rradius 50.321
rwrist 20.6723
rhand -48.5074 765.798
rfingers 7.12502
rthumb -21.1558 736.932
lclavicle 1.98163e-014 2.38542e-015
lhumerus -555.824 166.837 -465.703
lradius 31.2125
lwrist -3.89377
lhand -31.9373 -719.737
lfingers 7.12502
lthumb -5.18823 30.1792
rfemur -588.697 -148.381 567.471
rtibia 87.8376
rfoot 8.18387 -18.4221
rtoes 29.0858
lfemur 41.953 240.218 -30.9775
ltibia 247.395
lfoot -156.431 163.808
ltoes 33.9466
213
root 17.5201 1.34545 0.302413 -1712.64 265.661 187.186
lowerback 60.0719 -4.43431 7.54289
upperback 19.3833 -6.02931 -4.24614
thorax -0.141534 -4.3438 -5.60667
lowerneck 9.10366 6.86623 -2.02084
upperneck 12.9927 8.96121 -6.32239
head 2.88725 3.95716 -1.74061
rclavicle 4.87768e-014 5.06901e-014
rhumerus -425.454 34.5455 253.862
rradius 51.0108
rwrist 19.9608
rhand -49.0006 764.641
rfingers 7.12502
rthumb -21.6296 735.829
lclavicle 4.87768e-014 5.06901e-014
lhumerus -555.672 166.078 -466.668
lradius 30.3952
lwrist -4.82119
lhand -29.0417 -719.489
lfingers 7.12502
lthumb -2.39197 30.4773
rfemur -586.96 -149.536 566.605
rtibia 86.8899
rfoot 7.84976 -18.4144
rtoes 29.5572
lfemur 39.292 240.707 -28.8328
ltibia 247.878
lfoot -157.239 164.422
ltoes 34.0072
214
root 17.5492 1.34417 0.282517 -1718.49 265.504 191.944
lowerback 59.6809 -4.30545 7.39007
upperback 19.328 -5.94817 -4.30893
thorax -0.205349 -4.29767 -5.64287
lowerneck 8.83547 6.68408 -1.61795
upperneck 13.1676 8.76602 -6.04064
head 2.98944 3.88115 -1.70505
rclavicle -3.50482e-014 2.17669e-014
rhumerus -425.88 34.4898 253.443
rradius 51.5515
rwrist 19.29
rhand -49.6689 763.375
rfingers 7.12502
rthumb -22.2713 734.638
lclavicle -3.50482e-014 2.17669e-014
lhumerus -555.577 165.522 -467.642
lradius 29.7394
lwrist -5.62411
lhand -25.8443 -719.361
lfingers 7.12502
lthumb 0.696148 30.6178
rfemur -585.239 -150.753 565.74
rtibia 85.9346
rfoot 7.87231 -18.1935
rtoes 30.007
lfemur 36.5135 241.115 -26.5973
ltibia 248.383
lfoot -158.023 165.08
ltoes 34.0963
215
root 17.5791 1.34296 0.264917 -1723.22 265.339 195.525
lowerback 59.3179 -4.23868 7.30251
upperback 19.2719 -5.89925 -4.36828
thorax -0.27061 -4.26353 -5.68994
lowerneck 8.6638 6.50636 -1.25739
upperneck 13.3186 8.56222 -5.78864
head 3.06685 3.80026 -1.67636
rclavicle 1.09953e-014 1.799e-014
rhumerus -426.161 34.4703 253.132
rradius 51.9458
rwrist 18.6936
rhand -50.2609 762.19
rfingers 7.12502
rthumb -22.8395 733.522
lclavicle 1.09953e-014 1.799e-014
lhumerus -555.499 164.969 -468.619
lradius 29.1564
lwrist -6.43372
lhand -22.3807 -719.477
lfingers 7.12502
lthumb 4.04111 30.4642
rfemur -583.516 -151.975 564.906
rtibia 84.9664
rfoot 8.27274 -17.6447
rtoes 30.1385
lfemur 33.6854 241.362 -24.3114
ltibia 248.888
lfoot -158.703 165.771
ltoes 34.0953
216
root 17.6099 1.34302 0.249354 -1727.3 265.157 198.431
lowerback 58.9787 -4.19418 7.24847
upperback 19.2167 -5.85531 -4.43065
thorax -0.334159 -4.22893 -5.75257
lowerneck 8.55011 6.3325 -0.868687
upperneck 13.452 8.36043 -5.57237
head 3.13202 3.72258 -1.66675
rclavicle 2.97525e-014 4.96962e-017
rhumerus -426.324 34.4072 252.954
rradius 52.238
rwrist 18.184
rhand -50.6985 761.189
rfingers 7.12502
rthumb -23.2594 732.574
lclavicle 2.97525e-014 4.96962e-017
lhumerus -555.371 164.401 -469.584
lradius 28.5987
lwrist -7.28868
lhand -18.6774 -719.783
lfingers 7.12502
lthumb 7.6165 30.0597
rfemur -581.794 -153.218 564.112
rtibia 83.9803
rfoot 8.86464 -16.8726
rtoes 29.9053
lfemur 30.9602 241.413 -22.1501
ltibia 249.396
lfoot -159.268 166.497
ltoes 34.085
217
root 17.6386 1.33971 0.235418 -1730.65 264.966 200.611
lowerback 58.6645 -4.16422 7.1749
upperback 19.1562 -5.83922 -4.4839
thorax -0.404411 -4.21216 -5.78459
lowerneck 8.53631 6.18049 -0.524898
upperneck 13.4469 8.17673 -5.39307
head 3.1321 3.65758 -1.66581
rclavicle -1.76794e-014 2.40032e-014
rhumerus -426.34 34.3628 252.924
rradius 52.4524
rwrist 17.7106
rhand -50.8741 760.385
rfingers 7.12502
rthumb -23.4279 731.791
lclavicle -1.76794e-014 2.40032e-014
lhumerus -555.285 163.817 -470.551
lradius 28.1745
lwrist -8.14122
lhand -14.8612 -720.074
lfingers 7.12502
lthumb 11.2986 29.6016
rfemur -580.144 -154.458 563.391
rtibia 83.0065
rfoot 9.65446 -15.7719
rtoes 29.0034
lfemur 28.5477 241.246 -20.2936
ltibia 249.875
lfoot -159.665 167.265
ltoes 34.0635
